REM DIRINDEX 1\2,1\3,1\4,1\5,1\6
REM DIRNAME folder01,folder02,folder03,folder04,folder05,folder06
TITLE ""
FILE "DISC5Track15.mp3" MP3
  TRACK 01 AUDIO
    TITLE "0:"
    INDEX 01 00:00:00
  TRACK 02 AUDIO
    TITLE "2:cjc129_4302"
    INDEX 01 00:03:14
  TRACK 03 AUDIO
    TITLE "0:"
    INDEX 01 00:09:30
  TRACK 04 AUDIO
    TITLE "3:cjc129_4303"
    INDEX 01 00:10:39
  TRACK 05 AUDIO
    TITLE "0:"
    INDEX 01 00:12:20
  TRACK 06 AUDIO
    TITLE "5:cjc129_4304"
    INDEX 01 00:12:50
  TRACK 07 AUDIO
    TITLE "0:"
    INDEX 01 00:16:55
  TRACK 08 AUDIO
    TITLE "4:cjc129_4305"
    INDEX 01 00:17:45
  TRACK 09 AUDIO
    TITLE "0:"
    INDEX 01 00:19:24
  TRACK 10 AUDIO
    TITLE "6:cjc129_4306"
    INDEX 01 00:19:54
  TRACK 11 AUDIO
    TITLE "0:"
    INDEX 01 00:24:20
  TRACK 12 AUDIO
    TITLE "3:cjc129_4307"
    INDEX 01 00:25:70
  TRACK 13 AUDIO
    TITLE "0:"
    INDEX 01 00:27:16
  TRACK 14 AUDIO
    TITLE "5:cjc129_4308"
    INDEX 01 00:27:47
  TRACK 15 AUDIO
    TITLE "0:"
    INDEX 01 00:29:03
  TRACK 16 AUDIO
    TITLE "4:cjc129_4309"
    INDEX 01 00:29:70
  TRACK 17 AUDIO
    TITLE "0:"
    INDEX 01 00:31:16
  TRACK 18 AUDIO
    TITLE "6:cjc129_4310"
    INDEX 01 00:31:45
  TRACK 19 AUDIO
    TITLE "0:"
    INDEX 01 00:36:52
  TRACK 20 AUDIO
    TITLE "3:cjc129_4311"
    INDEX 01 00:38:31
  TRACK 21 AUDIO
    TITLE "0:"
    INDEX 01 00:39:43
  TRACK 22 AUDIO
    TITLE "5:cjc129_4312"
    INDEX 01 00:40:01
  TRACK 23 AUDIO
    TITLE "0:"
    INDEX 01 00:43:29
  TRACK 24 AUDIO
    TITLE "4:cjc129_4313"
    INDEX 01 00:44:20
  TRACK 25 AUDIO
    TITLE "0:"
    INDEX 01 00:45:33
  TRACK 26 AUDIO
    TITLE "6:cjc129_4314"
    INDEX 01 00:45:65
  TRACK 27 AUDIO
    TITLE "0:"
    INDEX 01 00:49:31
  TRACK 28 AUDIO
    TITLE "3:cjc129_4315"
    INDEX 01 00:51:05
  TRACK 29 AUDIO
    TITLE "0:"
    INDEX 01 00:52:63
  TRACK 30 AUDIO
    TITLE "5:cjc129_4316"
    INDEX 01 00:53:19
  TRACK 31 AUDIO
    TITLE "0:"
    INDEX 01 00:57:41
  TRACK 32 AUDIO
    TITLE "4:cjc129_4317"
    INDEX 01 00:58:32
  TRACK 33 AUDIO
    TITLE "0:"
    INDEX 01 01:00:15
  TRACK 34 AUDIO
    TITLE "6:cjc129_4318"
    INDEX 01 01:00:51
  TRACK 35 AUDIO
    TITLE "0:"
    INDEX 01 01:04:43
  TRACK 36 AUDIO
    TITLE "3:cjc129_4319"
    INDEX 01 01:06:18
  TRACK 37 AUDIO
    TITLE "0:"
    INDEX 01 01:07:29
  TRACK 38 AUDIO
    TITLE "5:cjc129_4320"
    INDEX 01 01:07:61
  TRACK 39 AUDIO
    TITLE "0:"
    INDEX 01 01:12:40
  TRACK 40 AUDIO
    TITLE "4:cjc129_4321"
    INDEX 01 01:13:32
  TRACK 41 AUDIO
    TITLE "0:"
    INDEX 01 01:14:41
  TRACK 42 AUDIO
    TITLE "6:cjc129_4322"
    INDEX 01 01:14:74
  TRACK 43 AUDIO
    TITLE "0:"
    INDEX 01 01:20:06
  TRACK 44 AUDIO
    TITLE "3:cjc129_4323"
    INDEX 01 01:21:61
  TRACK 45 AUDIO
    TITLE "0:"
    INDEX 01 01:23:44
  TRACK 46 AUDIO
    TITLE "5:cjc129_4324"
    INDEX 01 01:23:73
  TRACK 47 AUDIO
    TITLE "0:"
    INDEX 01 01:25:45
  TRACK 48 AUDIO
    TITLE "4:cjc129_4325"
    INDEX 01 01:26:36
  TRACK 49 AUDIO
    TITLE "0:"
    INDEX 01 01:28:18
  TRACK 50 AUDIO
    TITLE "6:cjc129_4326"
    INDEX 01 01:28:55
  TRACK 51 AUDIO
    TITLE "0:"
    INDEX 01 01:33:54
  TRACK 52 AUDIO
    TITLE "3:cjc129_4327"
    INDEX 01 01:35:27
  TRACK 53 AUDIO
    TITLE "0:"
    INDEX 01 01:36:39
  TRACK 54 AUDIO
    TITLE "5:cjc129_4328"
    INDEX 01 01:36:70
  TRACK 55 AUDIO
    TITLE "0:"
    INDEX 01 01:43:11
  TRACK 56 AUDIO
    TITLE "4:cjc129_4329"
    INDEX 01 01:44:01
  TRACK 57 AUDIO
    TITLE "0:"
    INDEX 01 01:45:12
  TRACK 58 AUDIO
    TITLE "6:cjc129_4330"
    INDEX 01 01:45:45
  TRACK 59 AUDIO
    TITLE "0:"
    INDEX 01 01:50:15
